<svg width="30px" height="30px"  id="Layer_1" data-name="Layer 1" xmlns="http://www.w3.org/2000/svg" viewBox="0 0 240.5 251.2"><defs><style>.cls-1{fill:#0078b5;}</style></defs><title>icon.linkedin</title><path class="cls-1" d="M299.8,315.3a9,9,0,0,1-9-9V257.7a16.8,16.8,0,1,0-33.6,0v48.6a9,9,0,0,1-18,0V257.7a34.8,34.8,0,1,1,69.6,0v48.6A9,9,0,0,1,299.8,315.3Z" transform="translate(-135.7 -130.4)"/><path class="cls-1" d="M248.2,315.3a9,9,0,0,1-9-9V231.8a9,9,0,0,1,18,0v74.5A9,9,0,0,1,248.2,315.3Z" transform="translate(-135.7 -130.4)"/><path class="cls-1" d="M212.2,314.9a9,9,0,0,1-9-9V231.4a9,9,0,0,1,18,0v74.5A9,9,0,0,1,212.2,314.9Z" transform="translate(-135.7 -130.4)"/><path class="cls-1" d="M212.2,217a9,9,0,0,1-9-9v-2.4a9,9,0,1,1,18,0V208A9,9,0,0,1,212.2,217Z" transform="translate(-135.7 -130.4)"/><path class="cls-1" d="M315.5,381.6h-117a9,9,0,0,1,0-18h117a42.64,42.64,0,0,0,42.8-42.4V190.8a42.64,42.64,0,0,0-42.8-42.4H196.1a42.42,42.42,0,0,0-42.4,42.4V319.7a9,9,0,0,1-18,0V190.8a60.47,60.47,0,0,1,60.4-60.4H315.4c33.5,0,60.8,27.1,60.8,60.4V321.3C376.3,354.5,349,381.6,315.5,381.6Z" transform="translate(-135.7 -130.4)"/></svg>
